<?xml version="1.0" encoding="UTF-8" standalone="no"?>
<!-- Generator: Adobe Illustrator 14.0.0, SVG Export Plug-In . SVG Version: 6.00 Build 43363)  -->
<!DOCTYPE svg  PUBLIC '-//W3C//DTD SVG 1.1//EN'  'http://www.w3.org/Graphics/SVG/1.1/DTD/svg11.dtd'>
<svg id="Ebene_1" xmlns="http://www.w3.org/2000/svg" xml:space="preserve" height="37.185px" viewBox="0 0 141.733 37.185" width="141.73px" version="1.1" y="0px" x="0px" xmlns:xlink="http://www.w3.org/1999/xlink" enable-background="new 0 0 141.733 37.185">
		<linearGradient id="SVGID_1_" y2="48.586" gradientUnits="userSpaceOnUse" x2="44.208" gradientTransform="translate(-28.07 -48.299)" y1="66.742" x1="44.208">
		<stop stop-color="#50AAD6" offset="0"/>
		<stop stop-color="#40A3D7" offset="1"/>
	</linearGradient>
	<polygon points="16.138 0 0 9.221 16.138 18.443 32.276 9.221" fill="url(#SVGID_1_)"/>
		<linearGradient id="SVGID_2_" y2="76.026" gradientUnits="userSpaceOnUse" x2="28.106" gradientTransform="translate(-28.07 -48.299)" y1="66.804" x1="43.957">
		<stop stop-color="#40A3D7" offset="0"/>
		<stop stop-color="#036297" offset="1"/>
	</linearGradient>
	<polygon points="16.138 36.886 16.138 18.443 0 9.221 0 27.664" fill="url(#SVGID_2_)"/>
	<polygon points="20.75 29.106 32.276 22.478 30.259 21.324 20.75 26.8" fill="#40A3D7"/>
	<polygon points="20.75 21.901 27.666 17.866 25.649 16.713 20.75 19.596" fill="#40A3D7"/>
	<path d="m27.666 15.561l-2.017 1.152 2.017 1.153v-2.305z" fill="#1E81B5"/>
		<linearGradient id="SVGID_3_" y2="75.901" gradientUnits="userSpaceOnUse" x2="60.095" gradientTransform="translate(-28.07 -48.299)" y1="66.679" x1="44.245">
		<stop stop-color="#BADAEA" offset="0"/>
		<stop stop-color="#51ACDC" offset="1"/>
	</linearGradient>
	<path d="m16.138 18.443v18.442l16.14-9.221v-5.188l-11.528 6.63v-2.306l11.527-6.628v-10.951l-16.139 9.222zm11.528-0.577l-6.916 4.035v-2.307l6.916-4.035v2.307z" fill="url(#SVGID_3_)"/>
<g fill="#025685">
	<path d="m61.14 16.306v2.872h-12.845v1.023c0 2.907 0.728 5.217 5.052 5.217 4.325 0 4.558-1.648 4.821-3.863h2.873c-0.363 4.425-2.081 6.24-7.694 6.24-5.282 0-7.793-2.146-7.793-7.395v-4.096c0-5.282 2.511-7.396 7.793-7.396 5.283 0.001 7.793 2.114 7.793 7.398zm-7.793-5.019c-4.325 0-5.052 2.212-5.052 5.514h10.104c0-3.302-0.727-5.514-5.052-5.514z"/>
	<path d="m79.829 22.381c0 4.59-2.972 5.415-7.594 5.415s-7.628-0.857-7.628-5.58h2.74c0 1.782 0.859 3.202 4.888 3.202s4.854-1.122 4.854-3.038c0-1.915-0.363-2.509-4.854-2.873-3.962-0.33-7.363-1.288-7.363-5.184 0-4.393 2.509-5.415 7.264-5.415 4.888 0 7.133 0.891 7.231 5.415h-2.741c0-2.146-0.495-3.038-4.491-3.038s-4.522 0.76-4.522 3.038c0 1.453 0.66 2.476 4.623 2.708 4.49 0.266 7.593 0.761 7.593 5.35z"/>
	<path d="m89.471 25.056h2.214v2.377h-2.214c-1.814 0-3.104-0.197-3.93-1.123-0.792-0.858-0.857-2.047-0.857-3.632v-11.194h-2.212v-2.411h2.212v-4.854h2.74v4.854h4.062v2.411h-4.062v11.193c-0.001 1.719 0.396 2.379 2.047 2.379z"/>
	<path d="m110.4 14.325v13.108h-2.774v-1.65c-1.188 1.288-2.938 2.014-5.018 2.014h-2.478c-3.599 0-5.315-1.914-5.315-5.514 0-3.601 1.717-5.481 5.315-5.481h7.595v-2.312c0-2.245-0.661-3.203-4.754-3.203-3.996 0-4.689 0.958-4.689 3.203h-2.74c0-2.212 0.66-3.6 1.981-4.458 1.154-0.759 2.839-1.122 5.448-1.122 2.608 0 4.258 0.362 5.446 1.122 1.32 0.859 1.98 2.279 1.98 4.293zm-7.69 11.128c3.237 0 5.02-1.981 5.02-4.887v-1.388h-7.231c-1.948 0-2.839 0.727-2.839 3.104s0.892 3.17 2.839 3.17c1.68 0.001 2.21 0.001 2.21 0.001z"/>
	<path d="m130.18 20.401c0 5.281-2.808 7.395-8.057 7.395-5.283 0-8.089-2.113-8.089-7.395v-4.096c0-5.282 2.807-7.396 8.089-7.396 5.25 0 8.057 2.114 8.057 7.396v4.096zm-2.74-3.897c0-2.906-0.991-5.217-5.316-5.217-4.326 0-5.315 2.312-5.315 5.217v3.697c0 2.907 0.99 5.217 5.315 5.217s5.316-2.311 5.316-5.217v-3.697z"/>
	<path d="m141.73 13.393c0 1.175-0.365 2.562-1.162 3.349-0.81 0.786-2.175 1.139-3.381 1.139-1.208 0-2.574-0.353-3.383-1.139-0.798-0.786-1.162-2.175-1.162-3.349 0-1.218 0.318-2.572 1.15-3.382 0.819-0.797 2.151-1.115 3.395-1.115 1.24 0 2.573 0.318 3.394 1.115 0.82 0.809 1.14 2.164 1.14 3.382zm-1.01 0c0-1.149-0.307-2.175-0.832-2.688-0.546-0.523-1.536-0.854-2.698-0.854s-2.143 0.331-2.677 0.854c-0.534 0.513-0.843 1.538-0.843 2.688 0 1.129 0.309 2.153 0.832 2.678 0.547 0.524 1.527 0.854 2.689 0.854 1.161 0 2.15-0.331 2.698-0.865 0.52-0.514 0.83-1.539 0.83-2.667zm-2.7 0.365l1.616 2.107h-1.229l-1.549-2.085h-0.535v2.085h-0.969v-5.194h2.256c1.047 0 1.57 0.489 1.57 1.561 0 0.9-0.43 1.412-1.16 1.526zm-0.41-0.809c0.432 0 0.592-0.239 0.592-0.717 0-0.468-0.16-0.741-0.592-0.741h-1.288v1.458h1.29z"/>
</g>
</svg>
